<svg xmlns="http://www.w3.org/2000/svg" xmlns:xlink="http://www.w3.org/1999/xlink" viewBox="0 0 157.43 123.42"><defs><style>.cls-1{fill:#bed63a;}.cls-2{fill:url(#linear-gradient);}.cls-3{fill:#494546;}</style><linearGradient id="linear-gradient" x1="119.87" y1="61.74" x2="78.72" y2="61.74" gradientUnits="userSpaceOnUse"><stop offset="0" stop-color="#74b64a"/><stop offset="0.3" stop-color="#72b349"/><stop offset="0.53" stop-color="#6aa944"/><stop offset="0.75" stop-color="#5d983c"/><stop offset="0.96" stop-color="#4c8031"/><stop offset="1" stop-color="#477a2e"/></linearGradient></defs><g id="Layer_2" data-name="Layer 2"><g id="Layer_1-2" data-name="Layer 1"><polygon class="cls-1" points="78.72 82.32 37.56 41.16 78.72 0 78.72 82.32"/><polygon class="cls-2" points="119.87 41.16 78.72 82.32 78.72 41.16 119.87 41.16"/><path class="cls-3" d="M37.72,101.25c0-.31.05-.61.05-.9a10.18,10.18,0,0,0-.13-1.57c-.55-3.37-3-6.23-8.6-6.23-6.45,0-8.73,3.79-8.73,7.8,0,3.05,1.79,7.59,8.73,7.59,4.6,0,6.93-2,8-4.23H33.76A6.17,6.17,0,0,1,29,105.48c-2.49,0-5.27-1-5.77-4.23ZM29,95c2.86,0,5.1,1.22,5.7,3.77H23.34C23.94,96.23,26.18,95,29,95Z"/><path class="cls-3" d="M0,92.91H2.86v6.85L11,92.91h4.08l-7,5.81,7.7,8.85H12l-6-7.15L2.86,103v4.55H0Z"/><path class="cls-3" d="M45,92.91h3l9.8,10.59V92.91h2.75v14.66H57.92l-10.2-11v11H45Z"/><path class="cls-3" d="M68.35,92.91h2.86L74,103h0l2.81-10.09h2.74L82.46,103h0l2.8-10.07h2.81l-4.28,14.67H81.09L78.31,97.17h0l-2.81,10.41h-2.8Z"/><path class="cls-3" d="M102.63,92.55c6.46,0,8.73,3.79,8.73,7.8,0,3.05-1.79,7.59-8.73,7.59s-8.72-4.54-8.72-7.59C93.91,96.34,96.18,92.55,102.63,92.55Zm5.87,7.65c0-3.53-2.52-5.19-5.87-5.19s-5.86,1.66-5.86,5.19c0,4.15,3.12,5.28,5.86,5.28S108.5,104.35,108.5,100.2Z"/><path class="cls-3" d="M126.3,92.55c6.46,0,8.73,3.79,8.73,7.8,0,3.05-1.79,7.59-8.73,7.59s-8.73-4.54-8.73-7.59C117.57,96.34,119.85,92.55,126.3,92.55Zm5.87,7.65c0-3.53-2.52-5.19-5.87-5.19s-5.86,1.66-5.86,5.19c0,4.15,3.12,5.28,5.86,5.28S132.17,104.35,132.17,100.2Z"/><path class="cls-3" d="M142,92.91h7.05c4.64,0,8.35,2,8.35,7.24,0,5-3.39,7.43-8.23,7.43H142Zm5.76,12.21c4.88,0,6.78-1.5,6.78-4.92,0-3.59-2-4.83-6.78-4.83h-2.9v9.75Z"/><path class="cls-3" d="M30.25,117a3.5,3.5,0,0,0-1.79-.39H24.59v6.68h1.25v-2.64h2.62a3.4,3.4,0,0,0,1.79-.39,2,2,0,0,0,0-3.26Zm-.7,2.29a3,3,0,0,1-1.28.2H25.84v-1.72h2.43a2.74,2.74,0,0,1,1.27.21.65.65,0,0,1,.34.66A.66.66,0,0,1,29.55,119.27Zm10.87.83a1.88,1.88,0,0,0-.18-3.19,3.91,3.91,0,0,0-1.7-.32H34.72v6.68H36v-2.74H38l2,2.74h1.55l-2.08-2.81A2.72,2.72,0,0,0,40.42,120.1ZM36,119.37v-1.62h2.4a3.4,3.4,0,0,1,1.25.17.72.72,0,0,1,0,1.28,3.2,3.2,0,0,1-1.25.17Zm15.59-2a4.58,4.58,0,0,0-5.53,0,3.35,3.35,0,0,0-1.11,2.6,3.2,3.2,0,0,0,1.24,2.62,4.58,4.58,0,0,0,5.26,0A3.18,3.18,0,0,0,52.66,120,3.34,3.34,0,0,0,51.56,117.37Zm-2.77,4.89a2.85,2.85,0,0,1-1.84-.58,2.27,2.27,0,0,1-.76-1.85,2.32,2.32,0,0,1,2.6-2.26,2.36,2.36,0,1,1,0,4.69Zm13.47-4.85a3.8,3.8,0,0,0-2.54-.82h-3.3v6.68h3.07A4.47,4.47,0,0,0,62,122.6a3.53,3.53,0,0,0,.25-5.19ZM61,121.79a3.07,3.07,0,0,1-1.44.32H57.67v-4.36h2a2.59,2.59,0,0,1,1.59.45,1.87,1.87,0,0,1,.7,1.65A2,2,0,0,1,61,121.79Zm11.63-1.31a1.64,1.64,0,0,1-.55,1.37,2.54,2.54,0,0,1-1.63.44,2.58,2.58,0,0,1-1.63-.44,1.64,1.64,0,0,1-.55-1.37v-3.89H67.06v3.89a2.66,2.66,0,0,0,1.17,2.39,4.94,4.94,0,0,0,4.53,0,2.63,2.63,0,0,0,1.16-2.39v-3.89H72.67Zm11.36.25-.11.21a2.48,2.48,0,0,1-2.37,1.32c-1.77,0-2.56-.93-2.58-2.22a2.45,2.45,0,0,1,.64-1.84,2.54,2.54,0,0,1,1.87-.63,2.29,2.29,0,0,1,2.35,1.28l.1.24,1.1-.51-.1-.23a3.57,3.57,0,0,0-3.45-1.91,4,4,0,0,0-2.71.89,3.31,3.31,0,0,0-1.06,2.61,3.45,3.45,0,0,0,.93,2.47,3.93,3.93,0,0,0,2.84,1h0a3.62,3.62,0,0,0,3.5-1.93l.12-.22-.23-.12Zm4.08-3h3v5.52h1.25v-5.52h3v-1.16H88.11Zm10.76,5.52h1.25v-6.68H98.87Zm11.64-5.9a4.56,4.56,0,0,0-5.52,0,3.32,3.32,0,0,0-1.11,2.6,3.2,3.2,0,0,0,1.23,2.62,4.6,4.6,0,0,0,5.27,0,3.2,3.2,0,0,0,1.24-2.62A3.35,3.35,0,0,0,110.51,117.37Zm-2.76,4.89a2.83,2.83,0,0,1-1.84-.58,2.28,2.28,0,0,1-.77-1.85,2.61,2.61,0,1,1,2.61,2.43Zm13.29-1-4.24-4.68h-1.42v6.68h1.21v-5.11l4.59,5.11h1.11v-6.68H121Zm10.82-1.57a9.49,9.49,0,0,0-2.92-.53,3.89,3.89,0,0,1-1.13-.25c-.26-.14-.35-.25-.36-.5a.67.67,0,0,1,.45-.62,3.38,3.38,0,0,1,1.42-.23,2.66,2.66,0,0,1,2.35,1l.15.18.92-.74-.14-.19a3.91,3.91,0,0,0-3.26-1.37,4.49,4.49,0,0,0-2.21.46,1.8,1.8,0,0,0-.94,1.64,1.51,1.51,0,0,0,1,1.45,11.08,11.08,0,0,0,2.91.5,3.82,3.82,0,0,1,1.13.27c.26.15.35.26.36.52s-.22.56-.62.74a3.71,3.71,0,0,1-1.38.24A2.74,2.74,0,0,1,127,121.1l-.16-.21-.2.17-.77.66.17.19a4.06,4.06,0,0,0,3.44,1.51h0a4.47,4.47,0,0,0,2.48-.6,1.81,1.81,0,0,0,.87-1.54A1.65,1.65,0,0,0,131.86,119.7Z"/></g></g></svg>